<svg width="50" height="48" viewBox="0 0 50 48" fill="none" xmlns="http://www.w3.org/2000/svg">
<ellipse cx="25" cy="23.9672" rx="25" ry="23.9672" fill="white"/>
<path d="M27.9419 13.3719L29.2935 12.076C31.533 9.92893 35.1641 9.92893 37.4037 12.076C39.6433 14.223 39.6433 17.7041 37.4037 19.8512L36.052 21.147M27.9419 13.3719C27.9419 13.3719 28.1108 16.1256 30.6452 18.5553C33.1796 20.985 36.052 21.147 36.052 21.147M27.9419 13.3719L24.5001 16.6714M36.052 21.147L28.3803 28.5019L23.8603 32.8351L23.6252 33.0605C22.7835 33.8673 22.3627 34.2708 21.8987 34.6178C21.3513 35.0272 20.759 35.3781 20.1323 35.6644C19.6011 35.9071 19.0365 36.0875 17.9072 36.4483L13.122 37.9776M13.122 37.9776L11.9523 38.3514C11.3966 38.529 10.784 38.3903 10.3697 37.9932C9.95554 37.596 9.81092 37.0087 9.99615 36.476L10.3861 35.3546M13.122 37.9776L10.3861 35.3546M10.3861 35.3546L11.9811 30.7671C12.3575 29.6845 12.5457 29.1432 12.7989 28.6339C13.0976 28.0331 13.4636 27.4653 13.8906 26.9405C14.2525 26.4956 14.6733 26.0923 15.515 25.2853L19.3959 21.5647" stroke="#A8A294" stroke-width="4" stroke-linecap="round"/>
</svg>
